<?xml version="1.0" encoding="UTF-8"?>
<svg width="512px" height="512px" viewBox="0 0 512 512" version="1.1" xmlns="http://www.w3.org/2000/svg" xmlns:xlink="http://www.w3.org/1999/xlink">
    <!-- Generator: Sketch 48.2 (47327) - http://www.bohemiancoding.com/sketch -->
    <title>petal-logo</title>
    <desc>Created with Sketch.</desc>
    <defs>
        <radialGradient cx="50%" cy="50%" fx="50%" fy="50%" r="49.0592192%" gradientTransform="translate(0.500000,0.500000),scale(1.000000,0.944505),rotate(-157.782654),translate(-0.500000,-0.500000)" id="radialGradient-1">
            <stop stop-color="#BE2E63" offset="0%"></stop>
            <stop stop-color="#EE89AB" offset="65.1805644%"></stop>
            <stop stop-color="#FFF4A6" offset="100%"></stop>
        </radialGradient>
    </defs>
    <g id="Page-1" stroke="none" stroke-width="1" fill="none" fill-rule="evenodd">
        <path d="M253.32557,225.570637 C250.211463,236.057092 252.056759,245.690924 248.247124,245.549219 C227.644647,244.782881 192.614762,144.208245 184.798766,116.651577 C174.481644,80.276746 189.813527,16.2323893 228.79192,18.0373505 C267.770314,19.8423116 293.330895,83.2207286 292.206667,107.873557 C291.82161,116.317345 291.429037,122.82058 290.864759,128.238612 C289.781547,138.639288 288.065595,145.040969 284.55544,153.494335 C279.216736,166.351319 266.254656,182.033198 253.32557,225.570637 Z M281.007129,238.330272 C270.360398,240.842346 262.919292,247.233417 261.148051,243.857605 C251.569196,225.60124 321.413598,145.201554 341.43641,124.718713 C367.866542,97.6813411 431.056532,79.1402652 448.870932,113.856546 C466.685333,148.572828 424.405268,202.262334 402.456749,213.544548 C394.939208,217.408795 389.101613,220.301659 384.1202,222.505973 C374.557674,226.737463 368.150193,228.43163 359.070513,229.589209 C345.260947,231.349807 325.209999,227.900697 281.007129,238.330272 Z M283.953352,268.868201 C276.454467,260.903898 267.199084,257.655247 269.237002,254.433402 C280.258051,237.009687 384.808423,257.296871 412.55849,264.395714 C449.188606,273.766194 496.840644,319.219792 475.682663,352.005656 C454.524682,384.79152 386.888173,375.020663 366.143229,361.653795 C359.037922,357.075537 353.613831,353.466464 349.214133,350.25459 C340.768292,344.088945 336.09736,339.386988 330.555027,332.102543 C322.125522,321.023407 315.087064,301.934222 283.953352,268.868201 Z M258.896066,286.680175 C262.043911,276.203798 260.229635,266.564076 264.038793,266.718043 C284.638697,267.550693 319.344667,368.237564 327.071922,395.819248 C337.271906,432.227099 321.733954,496.221773 282.761573,494.291356 C243.789191,492.36094 218.432747,428.900576 219.636323,404.251493 C220.048557,395.808989 220.46206,389.307051 221.043776,383.890864 C222.16046,373.493728 223.897009,367.097604 227.434356,358.65558 C232.814417,345.815847 245.826907,330.175772 258.896066,286.680175 Z M230.892556,273.954221 C241.539287,271.442147 248.980393,265.051076 250.751633,268.426888 C260.330489,286.683253 190.486086,367.08294 170.463275,387.565781 C144.033143,414.603152 80.8431532,433.144228 63.0287523,398.427947 C45.2143515,363.711666 87.494417,310.022159 109.442936,298.739945 C116.960477,294.875698 122.798071,291.982834 127.779485,289.778521 C137.342011,285.54703 143.749491,283.852863 152.829172,282.695284 C166.638737,280.934686 186.689685,284.383796 230.892556,273.954221 Z M227.946333,243.416293 C235.445218,251.380595 244.700601,254.629247 242.662682,257.851092 C231.641634,275.274807 127.091262,254.987623 99.3411951,247.88878 C62.7110785,238.5183 15.059041,193.064701 36.217022,160.278837 C57.375003,127.492973 125.011512,137.26383 145.756456,150.630699 C152.861762,155.208956 158.285854,158.818029 162.685552,162.029904 C171.131393,168.195548 175.802325,172.897506 181.344658,180.18195 C189.774163,191.261086 196.81262,210.350271 227.946333,243.416293 Z" id="Path" fill="url(#radialGradient-1)"></path>
        <rect id="Rectangle-2" x="0" y="0" width="512" height="512"></rect>
    </g>
</svg>